HIERARCHY
ROOT Hips
{
	OFFSET 0.000000 0.000000 0.000000 
	CHANNELS 6 Xposition Yposition Zposition Zrotation Yrotation Xrotation
	JOINT LeftUpLeg
	{
		OFFSET 1.363060 -1.794630 0.839290 
		CHANNELS 3 Zrotation Yrotation Xrotation
		JOINT LeftLeg
		{
			OFFSET 2.448110 -6.726130 0.000000 
			CHANNELS 3 Zrotation Yrotation Xrotation
			JOINT LeftFoot
			{
				OFFSET 2.562200 -7.039590 0.000000 
				CHANNELS 3 Zrotation Yrotation Xrotation
				JOINT LeftToeBase
				{
					OFFSET 0.157640 -0.433110 2.322550 
					CHANNELS 3 Zrotation Yrotation Xrotation
					End Site
					{
						OFFSET 0.000000 0.000000 0.000000 
					}
				}
			}
		}
	}
	JOINT RightUpLeg
	{
		OFFSET -1.305520 -1.794630 0.839290 
		CHANNELS 3 Zrotation Yrotation Xrotation
		JOINT RightLeg
		{
			OFFSET -2.542530 -6.985550 0.000000 
			CHANNELS 3 Zrotation Yrotation Xrotation
			JOINT RightFoot
			{
				OFFSET -2.568260 -7.056230 0.000000 
				CHANNELS 3 Zrotation Yrotation Xrotation
				JOINT RightToeBase
				{
					OFFSET -0.164730 -0.452590 2.363150 
					CHANNELS 3 Zrotation Yrotation Xrotation
					End Site
					{
						OFFSET 0.000000 0.000000 0.000000 
					}
				}
			}
		}
	}
	JOINT Spine
	{
		OFFSET 0.028270 2.035590 -0.193380 
		CHANNELS 3 Zrotation Yrotation Xrotation
		JOINT Spine1
		{
			OFFSET 0.056720 2.048850 -0.042750 
			CHANNELS 3 Zrotation Yrotation Xrotation
			JOINT Neck1
			{
				OFFSET -0.054170 1.746240 0.172020 
				CHANNELS 3 Zrotation Yrotation Xrotation
				JOINT Head
				{
					OFFSET 0.104070 1.761360 -0.123970 
					CHANNELS 3 Zrotation Yrotation Xrotation
					End Site
					{
						OFFSET 0.000000 0.000000 0.000000 
					}
				}
			}
			JOINT LeftArm
			{
				OFFSET 3.362410 1.200890 -0.311210 
				CHANNELS 3 Zrotation Yrotation Xrotation
				JOINT LeftForeArm
				{
					OFFSET 4.983000 -0.000000 -0.000000 
					CHANNELS 3 Zrotation Yrotation Xrotation
					JOINT LeftHand
					{
						OFFSET 3.483560 -0.000000 -0.000000 
						CHANNELS 3 Zrotation Yrotation Xrotation
						JOINT LeftHandIndex1
						{
							OFFSET 0.715260 -0.000000 -0.000000 
							CHANNELS 3 Zrotation Yrotation Xrotation
							End Site
							{
								OFFSET 0.000000 0.000000 0.000000 
							}
						}
					}
				}
			}
			JOINT RightArm
			{
				OFFSET -3.136600 1.374050 -0.404650 
				CHANNELS 3 Zrotation Yrotation Xrotation
				JOINT RightForeArm
				{
					OFFSET -5.241900 -0.000000 -0.000000 
					CHANNELS 3 Zrotation Yrotation Xrotation
					JOINT RightHand
					{
						OFFSET -3.444170 -0.000000 -0.000000 
						CHANNELS 3 Zrotation Yrotation Xrotation
						JOINT RightHandIndex1
						{
							OFFSET -0.622530 -0.000000 -0.000000 
							CHANNELS 3 Zrotation Yrotation Xrotation
							End Site
							{
								OFFSET 0.000000 0.000000 0.000000 
							}
						}
					}
				}
			}
		}
	}
}
MOTION
Frames: 13
Frame Time: 0.041667
-0.313205 17.986162 -28.782387 -5.959604 -0.056309 3.230011 -10.321860 -7.994319 -26.832859 0.921422 10.084251 30.590060 1.670184 -3.509410 13.649504 0.100300 2.041900 5.621500 24.711784 0.642992 0.633668 -17.572975 -17.224525 79.803815 -0.335235 -19.868815 31.049612 -1.147600 -6.802200 19.130800 0.813089 1.078119 8.784380 -2.529828 1.188461 -11.041928 2.924688 -0.833983 -3.941543 0.578100 -0.388700 -2.355100 -77.886410 17.507462 41.983358 118.686553 -63.322466 -87.161159 0.395155 -1.422505 -29.634978 -7.125000 0.000000 0.000000 71.733583 -11.365103 52.084136 -56.776313 53.300880 -40.064522 2.024031 0.844028 4.484260 7.125000 0.000000 0.000000 
-0.309737 17.911507 -28.276426 -5.769039 0.387813 2.872201 -10.900566 -8.646465 -25.881922 1.571444 10.767395 32.988016 1.346116 -2.848246 9.896645 0.000600 0.164200 0.451100 23.840027 0.232937 -2.153470 -19.002086 -17.449169 84.399864 -0.162872 -20.208339 29.945455 -1.379100 -7.431200 20.999400 0.938186 0.707584 9.012050 -2.269108 1.003716 -11.293383 3.022285 -0.553894 -4.570434 0.642500 -0.258300 -2.623000 -78.628290 14.673749 42.319400 119.213593 -63.082285 -87.604401 0.429544 -1.410619 -29.097890 -7.125000 0.000000 0.000000 71.916238 -11.932427 51.100691 -53.221357 51.996830 -36.564193 1.993312 0.644414 7.271955 7.125000 0.000000 0.000000 
-0.300048 17.820126 -27.779847 -5.525290 0.668538 2.488817 -11.459680 -8.995546 -24.579858 1.956220 11.117550 34.413147 1.276617 -2.834916 7.572785 0.013300 -0.744300 -2.045600 22.878029 0.118509 -5.034429 -20.369707 -17.595649 88.845200 -0.163994 -19.857276 29.307967 -1.497000 -7.728700 21.893000 0.799181 0.431882 9.216650 -2.171684 0.848616 -11.678044 3.111673 -0.275935 -5.283009 0.671300 -0.136600 -2.915000 -79.034194 11.571701 42.913945 119.538861 -62.892716 -87.903652 0.456018 -1.407155 -28.677914 -7.125000 0.000000 0.000000 72.413227 -12.583717 49.564932 -50.443660 50.930582 -33.881564 1.979905 0.461825 9.170051 7.125000 0.000000 0.000000 
-0.300966 17.759443 -27.279699 -4.452536 0.908354 2.374910 -12.797143 -9.249257 -23.359284 2.255951 11.354598 35.579554 1.385262 -3.465035 5.602240 0.042400 -1.329000 -3.654500 20.951189 0.189961 -8.253363 -21.611724 -17.716298 92.961119 -0.258312 -18.592985 28.705522 -1.458700 -7.633600 21.606500 0.435348 0.060164 8.904234 -1.561294 0.705824 -12.225893 3.512875 0.211631 -6.291431 0.867000 0.080500 -3.510900 -79.421591 9.102783 43.477649 119.995016 -62.708425 -88.256345 0.460442 -1.387267 -28.062418 -7.125000 0.000000 0.000000 72.724055 -13.934712 48.126313 -48.686877 50.275685 -32.219962 1.983400 0.343731 9.810044 7.125000 0.000000 0.000000 
-0.315040 17.693559 -26.798622 -2.836894 1.015972 2.504138 -14.668864 -9.285876 -22.254381 2.488945 11.494969 36.431931 1.362396 -3.499249 3.512875 0.125200 -2.280600 -6.281700 18.379805 0.526601 -11.876010 -22.767244 -17.826381 96.865253 -0.299191 -16.649434 27.538799 -1.191700 -6.927300 19.500000 -0.109425 -0.339797 8.918222 -0.647482 0.589814 -12.300855 3.957015 0.785538 -7.038872 1.085100 0.345700 -3.908000 -79.872496 5.910782 43.679665 120.115955 -62.577926 -88.417437 0.496405 -1.406918 -27.446842 -7.125000 0.000000 0.000000 73.016496 -14.816422 46.646214 -47.282562 49.731208 -30.931116 1.985276 0.307973 9.476589 7.125000 0.000000 0.000000 
-0.328299 17.639097 -26.319076 -1.491595 0.916630 2.893982 -16.188150 -9.227917 -21.170837 2.621752 11.533464 36.868844 1.282727 -3.180531 1.704516 0.174600 -2.691700 -7.421500 16.202273 1.184153 -15.729514 -23.746584 -17.917627 100.230581 -0.214827 -14.554287 25.640861 -0.701700 -5.354400 14.922300 -0.944671 -0.426423 9.540475 -0.165452 0.563606 -11.848376 4.158559 1.147429 -7.599137 1.112900 0.502500 -3.908300 -79.846255 1.747767 44.302913 120.177803 -62.433783 -88.523444 0.515218 -1.426380 -26.741683 -7.125000 0.000000 0.000000 74.047116 -14.775011 44.348424 -45.913363 49.099456 -29.662824 1.985105 0.294366 8.904540 7.125000 0.000000 0.000000 
-0.329727 17.598098 -25.835551 -1.579059 1.001937 3.247950 -16.218113 -9.013253 -20.044684 2.672887 11.526571 37.012067 1.434680 -3.614759 0.735647 0.170000 -2.656000 -7.322500 15.893058 1.820882 -19.356498 -24.481216 -17.953040 102.842523 0.029868 -12.984288 22.987467 -0.250500 -3.220300 8.892700 -1.111427 -0.501002 10.021717 -0.299799 0.463915 -11.474296 4.231563 1.517160 -8.432942 1.103800 0.660100 -4.090600 -79.819989 -1.829820 45.078188 120.102674 -62.360197 -88.484284 0.496649 -1.444652 -25.445439 -7.125000 0.000000 0.000000 74.994487 -14.889424 42.155455 -44.687583 48.509991 -28.506054 1.995846 0.259748 8.550726 7.125000 0.000000 0.000000 
-0.323505 17.571683 -25.353251 -1.799154 1.291429 3.580764 -16.151215 -8.765669 -18.768606 2.678843 11.473477 36.982602 1.588346 -4.045117 -0.027653 0.220300 -3.021800 -8.339300 15.848206 2.433644 -22.752389 -25.021638 -18.019110 104.723836 0.181956 -11.803937 21.011057 -0.102800 -2.067300 5.691600 -0.769926 -0.919363 9.549090 -0.176040 0.234107 -11.850233 4.142195 1.992833 -8.847158 1.101600 0.891100 -4.421200 -80.143771 -3.756970 45.351720 120.222032 -62.314821 -88.650465 0.531564 -1.409331 -24.004113 -7.125000 0.000000 0.000000 74.971156 -16.072171 41.070230 -43.472391 48.030027 -27.443703 2.001036 0.243878 8.541938 7.125000 0.000000 0.000000 
-0.316264 17.567808 -24.853715 -1.664706 1.584952 3.981483 -16.458945 -8.214447 -17.383818 2.582545 11.309856 36.581312 1.658205 -4.211415 -0.469536 0.270800 -3.347600 -9.248100 15.402892 3.052880 -25.955129 -25.388884 -18.157579 105.854940 0.175831 -11.097336 20.532798 -0.157600 -2.558300 7.051300 -0.377694 -1.580468 8.533848 0.266990 -0.072873 -12.497093 3.888950 2.616791 -9.121014 1.060300 1.208800 -4.849800 -80.495425 -4.477531 45.187423 120.979209 -62.083869 -89.172262 0.547243 -1.388427 -22.334836 -7.125000 0.000000 0.000000 74.329376 -17.912034 40.843694 -42.516890 47.728584 -26.660569 2.008750 0.287220 8.582850 7.125000 0.000000 0.000000 
-0.309839 17.555569 -24.346121 -1.460168 1.695012 4.191572 -16.779154 -7.525500 -15.868112 2.409389 11.063412 35.893041 1.657485 -4.202744 -0.354389 0.347200 -3.786000 -10.475300 14.957310 3.845710 -28.909899 -25.625608 -18.299271 106.481528 0.121241 -10.795067 20.795193 -0.360800 -3.858900 10.680000 -1.168606 -1.582621 9.997292 -0.188675 -0.197332 -11.453932 3.406960 2.387545 -8.277099 0.713500 1.094700 -3.900400 -79.948358 -8.492357 45.742341 120.975450 -61.983382 -89.203051 0.544853 -1.377567 -20.744319 -7.125000 0.000000 0.000000 75.954970 -17.099977 38.381355 -42.033163 47.354872 -26.148729 2.018666 0.310871 8.735584 7.125000 0.000000 0.000000 
-0.301476 17.632366 -23.809054 -1.352182 1.881196 4.427543 -16.922928 -6.873478 -14.028032 2.133899 10.692663 34.790558 1.664290 -4.259308 0.157666 0.445300 -4.281600 -11.870300 14.659065 4.518061 -31.436046 -25.530801 -18.547855 106.018905 0.016842 -10.429464 21.490106 -0.610700 -5.001900 13.914000 -1.115451 -2.102297 9.740288 -0.072736 -0.485797 -11.462507 3.006348 2.697635 -8.439255 0.554800 1.249300 -4.078000 -79.889834 -9.352014 45.529025 121.767902 -61.734097 -89.743597 0.552174 -1.327887 -19.112611 -7.125000 0.000000 0.000000 75.852838 -18.360706 38.032061 -42.162967 47.494215 -26.287161 2.030423 0.294554 8.636970 7.125000 0.000000 0.000000 
-0.306167 17.703452 -23.278309 -1.094876 2.300167 4.697879 -17.087581 -6.472159 -12.228919 1.863463 10.309963 33.682304 1.600663 -4.153171 1.112213 0.684800 -5.290600 -14.739300 14.283542 5.041028 -33.980976 -25.319337 -18.835278 105.215582 -0.004602 -10.012705 21.554711 -0.675800 -5.256700 14.642300 -0.869322 -2.718385 9.535555 0.351474 -0.792459 -11.455981 2.637030 2.978591 -7.935276 0.433800 1.410800 -3.898000 -79.874531 -10.200153 45.514984 122.971021 -61.341516 -90.553554 0.565606 -1.274616 -18.212821 -7.125000 0.000000 0.000000 75.458686 -19.367759 37.964687 -42.343250 47.670540 -26.488542 2.032906 0.269311 8.347826 7.125000 0.000000 0.000000 
-0.311573 17.772293 -22.743689 -0.724141 2.785566 5.010754 -17.290192 -6.034022 -10.385957 1.551964 9.864026 32.385571 1.547913 -4.151807 2.630507 1.085600 -6.621900 -18.600000 13.795929 5.532936 -36.283643 -24.917979 -19.155156 103.907093 0.032132 -9.240500 20.903263 -0.508600 -4.571500 12.690300 -0.777694 -3.256861 9.402712 0.725160 -1.066863 -11.456319 2.271574 3.175020 -7.100618 0.288000 1.527900 -3.486200 -79.627116 -11.117294 45.847043 124.087312 -60.953919 -91.308752 0.578330 -1.225402 -17.776862 -7.125000 0.000000 0.000000 75.286386 -20.313578 37.723778 -42.741520 47.936431 -26.889919 2.035340 0.305927 7.806817 7.125000 0.000000 0.000000 
